<?xml version="1.0" encoding="UTF-8"?><svg id="Layer_2" xmlns="http://www.w3.org/2000/svg" viewBox="0 0 1920 400"><defs><style>.cls-1{fill:#fff;}</style></defs><g id="Layer_2-2"><path class="cls-1" d="m0,0v400h1920V0H0Zm628.15,244.87c-19.25,43.5-49.56,80.15-86.74,108.36-37.17,27.94-81.2,47.72-117.05,36.64-35.85-11.33-63.8-53.51-70.92-91.21-7.38-37.97,6.07-71.45-18.72-103.35-24.78-31.63-87.79-61.43-104.92-97.02-16.87-35.85,12.13-77.24,50.88-83.83,38.49-6.59,87,21.62,136.56,20.3,49.3-1.32,99.92-32.43,141.05-26.63,41.12,5.8,73.02,48.51,84.89,95.17,11.86,46.93,3.95,97.81-15.03,141.57Z"/></g></svg>