<?xml version="1.0" encoding="UTF-8"?><svg id="Layer_2" xmlns="http://www.w3.org/2000/svg" viewBox="0 0 1920 332.77"><defs><style>.cls-1{fill:#11191f;}</style></defs><g id="Wave"><path class="cls-1" d="m1920,0v332.77H0V101.56c28.96,8.79,65.48,18.22,112,28.21,268.96,57.74,377.34,27.82,602,66,237.15,40.3,190.61,92.66,353,99,177.59,6.93,373.95-118.98,544.21-196.33-18.4,15.46-50.89,46.84-57.22,80.26-8.93,47.15,12.18,85.54,57.98,127.37,8.45,7.71,19.75,19.7,19.75,19.7,0,0,38.13-63.7,53.77-112.14,3.99,1.94,8.23,3.58,12.74,4.87,56.94,16.25,166.79,10.95,166.79,10.95,0,0-6.2-18.49-9.54-31.62-18.08-71.15-46.37-114.63-100.58-131.64-19.27-6.04-41.67-4.93-62.55-.98,84.07-29.89,162.92-46.75,227.65-65.21Z"/></g></svg>