<?xml version="1.0" encoding="UTF-8"?><svg id="Layer_2" xmlns="http://www.w3.org/2000/svg" viewBox="0 0 200 72.38"><defs><style>.cls-1{fill:none;}.cls-2{fill:red;}</style></defs><g id="Web_Design_copy"><g><path d="m20.78,72.38l-5.55-15.12-5.57,15.12-6.91-17.17h1.5l5.47,13.64,4.8-13.64h1.42l4.88,13.64,5.41-13.64h1.47l-6.91,17.17Z"/><path d="m36.67,62.77h8.36v1.14h-8.36v6.85h9.17v1.14h-10.56v-16.7h10.4v1.14h-9.01v6.42Z"/><path d="m54.82,55.21h5.09c3.19,0,5.33,1.67,5.33,4.29s-1.9,3.48-2.22,3.6c.32.07,3.24.98,3.24,4.27,0,2.67-2.06,4.53-5.68,4.53h-5.76v-16.7Zm5.33,7.54c2.55,0,3.64-1.43,3.64-3.24s-1.45-3.15-4.02-3.15h-3.56v6.39h3.94Zm.29,8.01c3.3,0,4.37-1.74,4.37-3.39s-1.1-3.48-3.99-3.48h-4.61v6.87h4.23Z"/><path d="m92.23,55.21c5.41,0,9.27,3.53,9.27,8.35s-3.86,8.35-9.27,8.35h-5.12v-16.7h5.12Zm-.27,15.55c4.93,0,8.09-2.89,8.09-7.2s-3.16-7.2-8.09-7.2h-3.46v14.41h3.46Z"/><path d="m111.56,62.77h8.36v1.14h-8.36v6.85h9.17v1.14h-10.56v-16.7h10.4v1.14h-9.01v6.42Z"/><path d="m134.58,63.96c-2.76-1.07-5.04-2.36-5.04-4.89,0-1.88,1.72-4.15,5.23-4.15s5.09,2.41,5.09,2.41l-1.07.74s-1.34-1.93-3.99-1.93c-2.36,0-3.86,1.26-3.86,2.93,0,2.05,2.12,2.96,4.8,4.01,2.87,1.12,4.48,2.41,4.48,4.65,0,2.7-2.47,4.46-5.6,4.46-4.13,0-5.82-3.41-5.82-3.41l1.26-.67s1.23,2.86,4.56,2.86c2.33,0,4.21-1.24,4.21-3.24s-2.04-2.91-4.23-3.77Z"/><path d="m149.56,55.21h1.39v16.7h-1.39v-16.7Z"/><path d="m170.12,63.12h6.49v6.82s-2.6,2.24-7.37,2.24c-5.55,0-9.25-3.82-9.25-8.63s3.83-8.63,9.25-8.63c4.66,0,6.81,2.36,6.81,2.36l-.99.83s-1.8-1.98-5.82-1.98c-4.61,0-7.8,3.27-7.8,7.42s3.03,7.42,7.8,7.42c4.02,0,6-1.57,6-1.57v-5.1h-5.12v-1.17Z"/><path d="m187.08,55.21l11.52,14.55v-14.55h1.39v16.7h-1.39l-11.52-14.6v14.6h-1.39v-16.7h1.39Z"/></g></g><g id="Arbor_copy"><g><path d="m2.68,27.13h0s0-.03,0-.05c0,.02,0,.03,0,.05Z"/><path d="m23.56,2.57c-3.19,0-6.11.48-8.69,1.43.01.03.02.06.04.09.32.8.62,1.78.69,2.3.07.48.2,1.39.05,2.51,2.24-1.08,4.9-1.61,7.91-1.61,9.73,0,15.73,5.51,15.73,16.88v4c.07.02.14.05.21.07.1.03.19.06.28.09.49.15.91.31,1.49.62,1.01.53,2.05,1.27,2.37,1.57.21.19.52.49.86.9v-6.74c0-14.66-8.3-22.1-20.95-22.1Z"/><path d="m36.08,36.79h.03s0,0,0,0c-.01,0-.02,0-.03,0Zm2.78-.4h0s0,0,0,0Zm-1.92-1.02s.03.02.04.03h0s-.03-.02-.04-.03Zm-.51-.33h0s.02,0,.03.01c0,0-.02,0-.03-.01Zm-.55-.21h0s.02,0,.03,0c0,0-.02,0-.03,0Zm2.14,1.87s-.04.02-.05.03c.04-.02.07-.03.11-.05-.02,0-.04.02-.05.02Zm-.05.03h0s0,0,0,0h0Z"/><path d="m44.16,38.51s0,0,0-.02c-.03-.05-.06-.11-.09-.16-.02-.03-.03-.06-.05-.09-.01-.02-.02-.04-.03-.06-.1-.16-.21-.31-.32-.44-.06-.07-.12-.14-.18-.21-.03-.03-.06-.06-.1-.1-.03-.03-.06-.06-.1-.09-.12-.11-.25-.21-.37-.31-.03-.02-.05-.04-.08-.06-.05-.04-.11-.07-.16-.11-.05-.04-.11-.07-.16-.1-.03-.02-.05-.03-.08-.05-.05-.03-.1-.06-.16-.08-.03-.01-.05-.03-.08-.04-.08-.04-.15-.07-.22-.1-.03-.01-.06-.03-.09-.04-.09-.04-.17-.07-.25-.1-.06-.02-.11-.04-.17-.06-.03-.01-.06-.02-.09-.03-.05-.01-.09-.03-.13-.04h0s-.08-.02-.11-.03c-.14-.04-.24-.05-.29-.06-.02,0-.04,0-.05,0-.03,0-.06,0-.09,0-.03,0-.06,0-.1,0-.1,0-.21,0-.32,0h-.09s-.08.01-.12.02c-.04,0-.08,0-.12.01-.02,0-.05,0-.07,0,0,0-.02,0-.03,0h0s0,0-.01,0c-.04,0-.08,0-.12.02-.03,0-.06,0-.09.01-.02,0-.04,0-.07.01h0s0,0,0,0c-.02,0-.05,0-.07.01h-.05s0,0-.01.01c-.04,0-.08.02-.12.02-.05.01-.11.02-.17.04h0s0,0,0,0c0,0-.02,0-.03,0,0,0-.02,0-.02,0h-.02s0,0,0,0h0s-.04.01-.06.02h-.03s-.05.02-.05.02h0s0,0,0,0c-.05.02-.11.03-.17.05,0,0,0,0-.01,0h0s0,0,0,0c-.02,0-.04.01-.06.02-.02,0-.04.01-.06.02t0,0h0s0,0,0,0c-.03.01-.06.02-.08.03h0s0,0,0,0c-.03.01-.06.02-.08.03h0s0,0,0,0c-.05.02-.1.04-.15.06-.04.02-.07.03-.11.05-.04.02-.07.03-.11.05h0s0,0,0,0h0s-.05.02-.07.03c-.04.02-.08.04-.11.06-.02,0-.03.02-.05.03-.03.02-.07.04-.1.05-.02.01-.05.03-.07.04l-.03.02s-.09.05-.14.08c-.05.03-.11.06-.16.1,0,0,0,0-.01,0h0s-.07.05-.1.07c-.03.02-.05.04-.08.05l-.03.02h-.02s0,.01,0,.01l-.03.02c-.07.05-.14.1-.2.15,0,0,0,0-.02.01-.04.03-.07.06-.1.08-.02.02-.04.03-.05.05h0s0,.01,0,.01h0s-.04.04-.06.06c-.01.01-.03.03-.04.04h0s-.01.01-.02.02c0,0-.01.01-.02.02-.01.01-.03.03-.04.04,0,0,0,0,0,0-.02.02-.04.04-.07.06-.01.01-.03.03-.04.04h0s0,.01-.02.02c-.02.02-.04.04-.05.05h0s0,0,0,0l-.05.05s-.03.03-.04.05h0s0,0,0,0c0,0,0,0,0,0-.02.02-.04.05-.06.06h0s-.01.02-.02.03c-.02.02-.04.04-.06.07l-.04.05s-.01.02-.02.03c0,0,0,0,0,0,0,0,0,0,0,0h0s-.01.02-.01.02c0,0,0,0,0,0h0c-.06.08-.12.16-.17.22,0,0,0,0,0,0,0,0,0,0,0,0l-.02.03c-.07.1-.13.18-.18.25.13.09.31.21.52.35h0c.11.08.23.16.35.26,0,0,0,0,0,0,0,0,0,0,0,0,.06.04.11.08.17.13,1.07.83,1.15,1.06,1.92,1.52.27.16.57.31.83.43v11.49h5.22v-13.37c-.05-.4-.17-.8-.36-1.19Zm-3.47.69c-.14-.04-.27-.08-.41-.11h0c-.12-.03-.23-.06-.35-.09-.14-.04-.28-.07-.42-.11-.07-.02-.15-.03-.22-.05-.01,0-.02,0-.03,0-.19-.05-.38-.09-.56-.12-.07-.02-.13-.03-.2-.04-.26-.05-.52-.1-.77-.15-.03,0-.07-.01-.1-.02.04,0,.08-.01.12-.02.05,0,.11-.02.17-.02.02,0,.05,0,.07,0,.04,0,.08,0,.12-.01.03,0,.06,0,.09,0,.05,0,.1,0,.16-.01.06,0,.12,0,.18-.01.06,0,.13,0,.19,0,.07,0,.13,0,.2,0,.11,0,.23,0,.35,0,.04,0,.08,0,.11,0,0,0,.02,0,.02,0h0s0,0,0,0h0s.02,0,.02,0c0,0,.01,0,.02,0,0,0,0,0,.01,0,0,0,0,0,0,0h0s.02,0,.02,0c0,0,0,0,.02,0,0,0,0,0,.01,0,.03,0,.05,0,.08,0,.08,0,.17.02.25.03.14.02.29.04.44.07.08.01.15.03.23.05h0c.14.03.28.06.42.1.37.1.69.22.96.34.18.08.33.16.47.24.58.34.89.69,1.19.97-1-.43-1.63-.64-2.93-1.02Z"/><path d="m34.72,34.47c-.06-.2-.11-.4-.15-.6,0-.04-.02-.08-.02-.12H7.83v-2.13c3.02-.2,5.03-2.32,5.3-2.62.46-.66,1.34-2.1,1.67-4.15,0-.03,0-.06.02-.09.04-.26.07-.54.09-.82.17-2.4-.56-4.23-.96-5.06-.43.19-1.15.5-2.05.82-2.15.77-2.58.69-3.9,1.33-.02.01-.04.02-.07.03-1.18.59-2.35,1.42-2.6,1.64-.67.61-1.85,1.71-2.46,3.56-.09.26-.15.53-.18.8,0,.02,0,.04,0,.06v25.93h5.15v-14.73h25.8c-.05-.03-.11-.06-.17-.09-.14-.08-.3-.16-.57-.28-.2-.09-.41-.17-.61-.24l-.49-.18.16-.5s.02-.04.02-.07h0s0-.03,0-.03v-.02s.04-.08.06-.12c.03-.06.05-.12.08-.18h0s0-.01,0-.01c0-.02.02-.03.03-.05.01-.03.03-.05.04-.08,0-.01.01-.03.02-.04h0s0,0,0,0c.01-.02.02-.04.04-.07l.02-.03h0s0-.01,0-.01v-.02s.03-.04.05-.06c.02-.02.03-.05.05-.07.02-.03.04-.05.05-.08h0s0,0,0,0c.05-.06.1-.13.15-.2.03-.04.06-.08.1-.11.03-.03.05-.06.08-.09.03-.04.07-.07.11-.11h.02s.05-.06.07-.08c0,0,.02-.02.04-.03,0,0,.02-.02.03-.02.04-.04.09-.07.13-.1.03-.03.07-.05.1-.08.03-.02.06-.04.09-.07.03-.02.06-.04.1-.07.04-.02.07-.05.1-.06.03-.02.06-.04.09-.05.03-.02.06-.03.09-.05.07-.04.13-.07.18-.09.03-.01.06-.03.09-.04.05-.02.1-.04.15-.06h0s.03-.01.03-.01c.05-.02.1-.04.15-.05.03,0,.05-.02.08-.03,0,0,0,0,0,0,.08-.03.16-.05.26-.07h0s0,0,0,0h.02s.03-.01.05-.01c-.02-.05-.03-.09-.04-.14Zm-29.8-5.25c-.09.02-.18.04-.27.06,1.23-.82,2.03-1.44,3.18-2.43.29-.25.61-.52.96-.83,1.45-1.27,2.71-2.53,3.8-3.72-.03.06-.05.13-.08.2,0,0,0,0,0,0-.46,1.08-1.4,2.84-3.2,4.44-.53.48-1.02.84-1.47,1.13-1.2.76-2.13.95-2.91,1.13Z"/><path d="m38.89,36.39s-.01,0-.02,0l.05-.02s-.02,0-.03,0Zm.64-.15h.01s.04,0,.07-.01c-.03,0-.05,0-.08.01Zm.3-.05h0s0,0,0,0h0Zm.06,0s-.02,0-.03,0c.02,0,.05,0,.07,0-.02,0-.03,0-.05,0Z"/><path d="m10.01,8.46c-.06-.14-.11-.26-.16-.37-.06-.13-.24-.45-.5-.85-.11-.17-.24-.36-.37-.55-.26-.37-.56-.77-.87-1.14-.55-.65-.92-.96-1.43-1.38-.14-.12-.3-.24-.47-.39-.32-.27-.71-.6-1.2-1.06-.08-.08-.16-.15-.24-.23-.58-.56-1.03-1.03-1.31-1.34-.69.6-2.09,1.99-2.89,4.26C-.27,7.81.02,9.87.19,10.76c.13.39,1.15,3.17,3.89,4.54-.09.26-.17.52-.25.79-.53,1.76-.88,3.69-1.04,5.78.34-.37.65-.65.87-.84.44-.4,1.82-1.36,3.16-2.02.67-.34,1.17-.53,1.66-.68.15-.61.32-1.2.52-1.77.06-.17.12-.33.18-.49.16-.42.34-.82.53-1.21.2-.41.42-.8.65-1.18.16-.4.28-.83.33-1.29,0-.02,0-.05,0-.07.02-.18.02-.35.03-.52.03-1.43-.38-2.58-.71-3.35Zm-4.54,3.64c-.31-.46-.63-1.01-.95-1.7-1.08-2.33-1.19-4.44-1.17-5.57.52,1.52,1.18,3.17,2.01,4.92.25.52.46.98.67,1.39.6,1.23,1.08,2.08,1.83,3.24-.67-.51-1.52-1.02-2.39-2.28Z"/><path d="m64.18,22.81v-7.37h-4.86v37.62h5.08v-19.17c0-8.87,4.79-13.87,12.66-13.87.36,0,.79.07,1.22.07v-4.93c-6.94,0-11.73,2.65-14.09,7.65Z"/><path d="m106.81,15.16c-6.01,0-11.16,2.57-14.3,7.44V0h-5.08v53.07h4.86v-7.44c3.07,5.08,8.29,7.8,14.52,7.8,10.73,0,18.74-7.8,18.74-19.17s-8.01-19.09-18.74-19.09Zm-.36,33.75c-8.01,0-14.02-5.86-14.02-14.66s6.01-14.66,14.02-14.66,14.02,5.86,14.02,14.66-6.08,14.66-14.02,14.66Z"/><path d="m151.29,15.16c-11.01,0-19.17,7.94-19.17,19.09s8.15,19.17,19.17,19.17,19.09-8.01,19.09-19.17-8.08-19.09-19.09-19.09Zm0,33.75c-8.01,0-14.02-5.86-14.02-14.66s6.01-14.66,14.02-14.66,13.94,5.86,13.94,14.66-5.94,14.66-13.94,14.66Z"/><path d="m185.62,22.81v-7.37h-4.86v37.62h5.08v-19.17c0-8.87,4.79-13.87,12.66-13.87.36,0,.79.07,1.22.07v-4.93c-6.94,0-11.73,2.65-14.09,7.65Z"/></g><path d="m12.9,9.83c-.29.75-.85,1.32-1.36,1.68-.04-1.75-.64-3.07-.95-3.76-.08-.19-.3-.57-.61-1.04-.11-.16-.22-.34-.35-.52-.15-1.06-.24-2.06-.28-2.98-.14.46-.33,1.18-.39,2.08-.07-.09-.15-.19-.23-.28-.62-.73-1.05-1.09-1.6-1.54-.02-.02-.04-.03-.06-.05.08-.12.16-.24.24-.37,1-1.4,2.24-2.08,2.83-2.35.15.3.41.8.76,1.39.85,1.42,1.12,1.56,1.56,2.56.05.11.1.23.15.35.3.76.51,1.53.54,1.74.09.64.24,1.78-.26,3.08Z"/><g><g><path class="cls-1" d="m37.98,36.73h0s0,0,0,0h0Z"/><path class="cls-2" d="m35.89,34.84h0s.02,0,.03,0c0,0-.02,0-.03,0Zm.55.21h0s.02,0,.03.01c0,0-.02,0-.03-.01Zm2.34.8s0,0,0,0c0,0,0,0,0,0h0Zm-2.7.95h.03s0,0,0,0c-.01,0-.02,0-.03,0Z"/><path d="m37.27,36.48s0,0-.02,0h0s-.07.04-.11.06c0,0-.02.01-.03.02-.06.03-.11.07-.17.11-.07.05-.14.1-.21.14-.03-.02-.05-.03-.08-.05-.06-.03-.12-.07-.19-.1,0,0-.02,0-.03-.01h0s-.03-.02-.05-.02c-.08-.03-.17-.07-.27-.1-.06-.02-.13-.03-.2-.05-.1-.02-.21-.04-.33-.05-.03,0-.06,0-.1,0h0s-.02,0-.03,0h0s-.02,0-.03,0c-.03,0-.06,0-.09,0h0c-.06,0-.11,0-.16,0-.01,0-.02,0-.04,0-.08,0-.16,0-.24,0-.04,0-.08,0-.11,0-.08,0-.16.02-.24.03-.01,0-.02,0-.04,0-.05,0-.11.02-.16.03-.05,0-.1.02-.15.03-.05.01-.11.03-.16.04-.2.06-.37.12-.49.17.2-.01.42-.02.64-.02.05,0,.09,0,.14,0,.05,0,.09,0,.14,0,.21,0,.44,0,.67.02.04,0,.07,0,.11,0,.03,0,.05,0,.08,0h0s.05,0,.07,0c.03,0,.05,0,.08,0s.05,0,.07,0c.02,0,.05,0,.07,0,.02,0,.05,0,.07,0,.02,0,.04,0,.07,0s.04,0,.06,0c.09,0,.17.01.25.02.01,0,.03,0,.04,0h.03s0,0,0,0c.04,0,.07,0,.1,0,.01,0,.02,0,.03,0,.02,0,.05,0,.07,0,.02,0,.05,0,.07,0,.02,0,.03,0,.05,0,.07.01.14.02.22.03,0,0,0,0,0,0,0,0,0,0,0,0s0,0,0,0c-.08.06-.15.11-.22.17-.02.01-.03.03-.05.04-.05.04-.1.08-.14.12,0,0,0,0,0,0h0s0,0,0,0c-.04.03-.08.07-.11.1-.05.05-.11.1-.16.15,0,0,0,0,0,0-.04.04-.08.08-.12.12-.04.04-.07.07-.1.11h-.01s-.05.07-.08.1c-.03.03-.06.06-.08.1-.03.03-.05.06-.08.1-.02.02-.03.04-.05.06h0c-.05.06-.09.11-.13.17h-.02c-.11,0-.55-.07-.95-.2-.46-.14-.53-.25-1.2-.55-.28-.12-.5-.21-.65-.26,0-.02.02-.04.02-.07.01-.03.03-.07.05-.11.02-.05.04-.1.07-.15.01-.02.02-.04.03-.06.01-.02.02-.04.04-.07,0-.01.01-.02.02-.04.02-.03.03-.06.05-.09.01-.02.03-.04.04-.07.01-.02.03-.04.04-.07.02-.02.03-.05.05-.07.04-.06.08-.11.13-.17.03-.03.05-.06.08-.1.02-.03.05-.05.07-.08.03-.03.06-.06.09-.09.03-.02.05-.05.08-.08,0,0,.01-.01.02-.02,0,0,.02-.02.02-.02.04-.03.08-.06.11-.09.03-.02.05-.04.08-.06.03-.02.06-.04.08-.06.03-.02.05-.04.08-.05.03-.02.05-.04.08-.05s.05-.03.08-.05c.03-.02.05-.03.08-.04.05-.03.1-.05.15-.08.03-.01.05-.02.08-.03.05-.02.1-.04.14-.06,0,0,0,0,0,0,.04-.02.08-.03.13-.04.03,0,.06-.02.08-.03.08-.03.16-.05.22-.06,0,0,.02,0,.02,0,.02,0,.04,0,.05-.01.01,0,.03,0,.04,0,0,0,.01,0,.02,0h0s.05,0,.09,0c.03,0,.05,0,.09,0h0s0,0,.01,0c0,0,.02,0,.03,0,.01,0,.02,0,.04,0,.03,0,.05,0,.08,0,.03,0,.06,0,.1.01h0s.05,0,.07,0c.03,0,.06,0,.09.01,0,0,0,0,0,0,.02,0,.05,0,.07.02.02,0,.05,0,.07.02h0s.08.02.11.03c.03,0,.05.02.08.02.01,0,.03,0,.04.01.05.02.11.04.16.06.06.02.11.05.17.08.06.03.12.06.17.1h0s0,0,0,0c.04.02.07.05.11.07,0,0,0,0,0,0,.04.03.07.05.11.08.05.04.11.09.16.14.02.02.04.04.06.06.02.02.04.04.06.07.02.02.04.04.05.06.01.02.03.03.04.05,0,0,.01.02.02.02.01.02.03.04.04.06.01.02.03.04.04.06.04.06.07.12.1.18.01.03.03.06.04.09Z"/></g><g><g><path d="m44.52,35.25v.59s0,0,0,0h0s0,.04,0,.05c0,.04,0,.08-.01.12,0,.04,0,.08-.02.12,0,.03,0,.06-.02.09-.01.07-.02.14-.04.21,0,.03-.02.07-.02.1s-.02.07-.03.1c-.02.07-.04.13-.06.19,0,.02,0,.03-.01.04s0,.03-.01.04c0,.03-.02.06-.03.08-.02.06-.05.12-.07.18-.02.04-.04.09-.06.13-.02.03-.03.07-.05.1-.82-.99-1.9-1.45-2.59-1.66-.53-.42-1.05-.89-1.78-1.55-.16-.15-.32-.3-.48-.44-.91-.86-1.72-1.7-2.42-2.5.22.59.64,1.52,1.41,2.5.3.38.65.77,1.06,1.15.3.28.59.51.86.71-.09,0-.18.01-.27.02-.04,0-.08,0-.12.01h-.03s-.08.02-.13.02c-.05,0-.11.02-.16.03-.05,0-.09.02-.14.02,0,0,0,0-.01,0-.1.02-.21.04-.32.07-.03,0-.06.02-.09.02-.03,0-.06.02-.09.02h0,0s-.09.03-.13.04c-.05.02-.1.03-.14.05,0,0,0,0,0,0-.05.02-.1.03-.14.05-.04.01-.07.03-.11.04,0,0-.01,0-.02,0-.03,0-.05.02-.08.03-.06.02-.11.05-.17.07-.06.02-.11.05-.17.08-.02,0-.03.02-.05.02-.04.02-.08.04-.12.06-.02-.04-.04-.08-.05-.12-.03-.05-.05-.11-.09-.16-.02-.03-.03-.06-.05-.08,0-.01-.02-.02-.02-.03-.02-.04-.05-.07-.08-.1,0,0-.01-.02-.02-.02-.02-.03-.05-.06-.07-.09-.03-.03-.05-.06-.08-.09l-.03-.03s-.05-.05-.07-.07c-.02-.02-.04-.04-.06-.06,0,0-.02-.02-.02-.02h0s-.03-.02-.04-.03c-.02-.02-.05-.04-.07-.05-.02-.02-.04-.03-.06-.05-.02-.02-.04-.03-.07-.05-.01,0-.03-.02-.04-.03,0,0,0,0,0,0-.03-.02-.07-.04-.1-.06-.04-.02-.08-.05-.13-.07,0,0-.01,0-.02,0,0,0-.02,0-.03-.01h0s-.04-.02-.06-.03c0,0-.02,0-.03-.01-.03-.01-.05-.02-.08-.03,0,0-.01,0-.02,0-.03-.01-.06-.03-.09-.04-.03-.01-.07-.02-.1-.04-.02,0-.03-.01-.05-.02-.02,0-.05-.01-.07-.02,0,0-.02,0-.03,0s-.02,0-.03,0h0s-.06-.02-.08-.02c-.04,0-.08-.02-.11-.03-.04,0-.07-.01-.11-.02-.07-.01-.13-.02-.19-.03,0,0,0,0-.01,0-.02-.05-.03-.09-.05-.14-.01-.04-.03-.08-.04-.13-.05-.17-.1-.34-.14-.53-.02-.06-.03-.12-.04-.19,0-.04-.02-.09-.03-.13,0-.03-.01-.06-.02-.08,0-.02,0-.03,0-.05-.01-.06-.02-.13-.03-.19,0-.04-.01-.07-.02-.11,0-.06-.02-.12-.02-.19,0-.04,0-.08-.01-.12,0-.04,0-.08-.01-.12h0s0-.08,0-.11c0-.05,0-.1,0-.16-.07-1.86.56-3.26.89-3.89.34.16.89.4,1.6.67.9.34,1.42.48,1.87.62.39.12.73.25,1.23.51.91.48,1.82,1.14,2.01,1.32.51.48,1.42,1.35,1.85,2.79.02.06.03.11.05.17,0,.03.01.05.02.08,0,.03.01.05.02.08.01.06.02.12.03.18,0,.03,0,.05,0,.08,0,0,0,0,0,0,0,.03,0,.06,0,.09,0,.01,0,.03,0,.04h0s0,.02,0,.02Z"/><path d="m35.92,34.84s-.02,0-.03,0h0s.02,0,.03,0Z"/><path class="cls-2" d="m39.53,36.24h.01s.04,0,.07-.01c-.03,0-.05,0-.08.01Zm-.75-.4s0,0,0,0c0,0,0,0,0,0h0Zm.11.54s-.01,0-.02,0l.05-.02s-.02,0-.03,0Zm.94-.19h0s0,0,0,0h0Zm.06,0s-.02,0-.03,0c.02,0,.05,0,.07,0-.02,0-.03,0-.05,0Zm-3.45-1.14h0s.02,0,.03.01c0,0-.02,0-.03-.01Zm-.55-.21h0s.02,0,.03,0c0,0-.02,0-.03,0Z"/></g><path class="cls-2" d="m36.95,35.38s.03.02.04.03h0s-.03-.02-.04-.03Zm-.51-.33h0s.02,0,.03.01c0,0-.02,0-.03-.01Zm-.55-.21h0s.02,0,.03,0c0,0-.02,0-.03,0Z"/><g><path d="m36.47,35.06s-.02,0-.03-.01h0s.02,0,.03.01Z"/><path class="cls-1" d="m36.44,35.05h0s.02,0,.03.01m-.03-.01h0s.02,0,.03.01c0,0-.02,0-.03-.01Zm0,0h0s.02,0,.03.01c0,0-.02,0-.03-.01Zm-.55-.21h0s.02,0,.03,0c0,0-.02,0-.03,0Z"/></g><g><polygon points="38.79 35.85 38.78 35.85 38.78 35.85 38.79 35.85"/><path class="cls-1" d="m38.79,35.85s0,0,0,0m0,0s0,0,0,0c0,0,0,0,0,0h0Zm.08.55h0s0,0,0,0Zm.03,0s-.01,0-.02,0l.05-.02s-.02,0-.03,0Zm-.11-.54s0,0,0,0c0,0,0,0,0,0h0Z"/></g><g><path class="cls-2" d="m36.44,35.05h0s.02,0,.03.01c0,0-.02,0-.03-.01Zm0,0h0s.02,0,.03.01c0,0-.02,0-.03-.01Zm0,0h0s.02,0,.03.01c0,0-.02,0-.03-.01Zm0,0h0s.02,0,.03.01c0,0-.02,0-.03-.01Zm0,0h0s.02,0,.03.01c0,0-.02,0-.03-.01Zm0,0h0s.02,0,.03.01c0,0-.02,0-.03-.01Zm0,0h0s.02,0,.03.01c0,0-.02,0-.03-.01Zm0,0h0s.02,0,.03.01c0,0-.02,0-.03-.01Zm0,0h0s.02,0,.03.01c0,0-.02,0-.03-.01Zm0,0h0s.02,0,.03.01c0,0-.02,0-.03-.01Zm0,0h0s.02,0,.03.01c0,0-.02,0-.03-.01Zm0,0h0s.02,0,.03.01c0,0-.02,0-.03-.01Z"/><path class="cls-1" d="m36.44,35.05h0s.02,0,.03.01m-.03-.01h0s.02,0,.03.01m-.03-.01h0s.02,0,.03.01m-.03-.01h0s.02,0,.03.01m-.03-.01h0s.02,0,.03.01m-.03-.01h0s.02,0,.03.01"/></g></g><path class="cls-2" d="m36.44,35.05h0s.02,0,.03.01c0,0-.02,0-.03-.01Z"/></g><g><g><path class="cls-1" d="m37.98,36.73h0s0,0,0,0h0Z"/><path class="cls-2" d="m38.78,35.85s0,0,0,0c0,0,0,0,0,0h0Z"/></g><g><g><path class="cls-2" d="m36.44,35.05h0s.02,0,.03.01c0,0-.02,0-.03-.01Z"/><path class="cls-1" d="m37.98,36.73h0s0,0,0,0h0Zm-2.09-1.89h0s.02,0,.03,0c0,0-.02,0-.03,0Zm.55.21h0s.02,0,.03.01c0,0-.02,0-.03-.01Zm.51.33s.03.02.04.03h0s-.03-.02-.04-.03Zm-.51-.33h0s.02,0,.03.01c0,0-.02,0-.03-.01Zm0,0h0s.02,0,.03.01"/></g><g><path d="m36.11,36.8h0s-.03,0-.03,0c.01,0,.02,0,.03,0Z"/><path class="cls-2" d="m36.95,35.38s.03.02.04.03h0s-.03-.02-.04-.03Zm-.51-.33h0s.02,0,.03.01c0,0-.02,0-.03-.01Zm-.55-.21h0s.02,0,.03,0c0,0-.02,0-.03,0Z"/></g></g></g></g></svg>