<?xml version="1.0" encoding="UTF-8"?><svg xmlns="http://www.w3.org/2000/svg" viewBox="0 0 1920 595"><defs><style>.cls-1{fill:#fff;}</style></defs><g id="Layer_7"><path class="cls-1" d="m1920,0v4.29c-171.81,100.23-322.32,135.33-381,135.71-174.08,1.12-217.47-27.7-359-24-155.42,4.06-317.57,108.01-468.11,194.22-12.53,7.18-24.98,14.24-37.34,21.1,8.42.41,16.64,1.68,24.35,4.1,54.21,17.01,82.5,60.49,100.58,131.64,3.34,13.13,9.54,31.62,9.54,31.62,0,0-109.85,5.3-166.79-10.95-4.51-1.29-8.75-2.93-12.74-4.87-15.64,48.44-53.77,112.14-53.77,112.14,0,0-11.3-11.99-19.75-19.7-45.8-41.83-66.91-80.22-57.98-127.37,2.92-15.37,11.36-30.32,21.42-43.48-27.11,9.36-53.44,15.96-78.84,18.87-10.35,1.2-20.54,1.77-30.57,1.68-145.18-1.36-255.29-120.27-410-287.76V0h1920Z"/></g></svg>