<?xml version="1.0" encoding="UTF-8"?><svg id="Layer_2" xmlns="http://www.w3.org/2000/svg" viewBox="0 0 375 146.96"><defs><style>.cls-1{fill:#fff;}</style></defs><g id="Mobile_Wave"><g id="Wave"><path class="cls-1" d="m375,7.81v139.15H0V0c.87,7.85,22,41.95,26.73,53.81,6.05,15.15,24.94,46.89,41.06,58.25,14.1,9.94,35.51,22.83,89.92,25.22,45.23,1.99,95.26-30.31,138.63-50.01-4.69,3.94-12.96,11.93-14.58,20.44-2.27,12.01,3.1,21.79,14.77,32.45,2.15,1.96,5.03,5.02,5.03,5.02,0,0,9.71-16.23,13.7-28.57,1.02.49,2.1.91,3.25,1.24,14.5,4.14,42.49,2.79,42.49,2.79,0,0-1.58-4.71-2.43-8.05-4.61-18.12-11.81-29.2-25.62-33.53-4.91-1.54-10.61-1.26-15.93-.25,21.42-7.61,41.5-66.29,57.99-70.99h0Z"/></g></g></svg>