<?xml version="1.0" standalone="no"?>
<!DOCTYPE svg PUBLIC "-//W3C//DTD SVG 20010904//EN"
 "http://www.w3.org/TR/2001/REC-SVG-20010904/DTD/svg10.dtd">
<svg version="1.0" xmlns="http://www.w3.org/2000/svg"
 width="211.000000pt" height="211.000000pt" viewBox="0 0 211.000000 211.000000"
 preserveAspectRatio="xMidYMid meet">
<metadata>
Created by potrace 1.14, written by Peter Selinger 2001-2017
</metadata>
<g transform="translate(0.000000,211.000000) scale(0.100000,-0.100000)"
fill="#000000" stroke="none">
<path d="M517 2073 c-20 -16 -45 -40 -56 -54 l-20 -26 39 -38 c22 -22 40 -37
41 -35 0 3 2 15 3 27 5 40 13 34 14 -10 1 -27 15 -69 37 -112 19 -38 37 -89
41 -113 l6 -43 24 22 c50 46 58 164 17 244 -33 64 -95 165 -103 165 -3 0 -23
-12 -43 -27z"/>
<path d="M272 2059 c-96 -89 -141 -287 -91 -394 22 -48 74 -108 116 -136 21
-15 22 -17 8 -70 -8 -30 -16 -67 -19 -84 -2 -16 -8 -50 -11 -75 l-7 -44 23 17
c71 52 145 98 175 109 28 10 36 20 45 52 6 22 25 68 42 101 27 52 31 71 31
135 1 114 -30 168 -168 303 -61 59 -113 107 -116 107 -4 0 -16 -9 -28 -21z
m56 -216 c12 -32 46 -106 75 -165 38 -74 48 -103 35 -94 -54 38 -112 150 -132
255 -16 83 -7 85 22 4z"/>
<path d="M1008 2025 c-2 -1 -29 -5 -62 -9 -62 -6 -123 -20 -168 -37 -26 -11
-26 -11 -11 -47 8 -20 16 -62 16 -94 1 -32 7 -58 12 -58 6 0 35 9 65 19 153
51 363 48 510 -8 154 -59 262 -171 316 -331 10 -30 19 -57 19 -60 18 -89 23
-141 24 -281 l1 -117 53 -21 c29 -12 75 -39 104 -60 28 -22 53 -38 55 -36 11
11 -3 406 -17 475 -3 14 -8 41 -11 60 -31 165 -136 340 -264 441 -79 62 -213
123 -315 143 -16 4 -41 9 -55 12 -27 5 -267 14 -272 9z"/>
<path d="M577 1325 c-170 -61 -251 -122 -294 -223 -15 -32 -17 -100 -18 -557
-1 -286 0 -525 2 -530 2 -7 43 -11 106 -10 l102 0 0 290 c-1 160 3 292 6 295
4 3 235 5 513 5 278 0 506 1 506 2 0 1 -13 9 -30 18 -16 9 -30 22 -30 30 0 22
59 84 87 91 15 4 23 12 21 23 -3 14 -53 16 -536 19 -292 1 -532 6 -533 10 0 4
-2 15 -4 26 -6 33 6 45 59 60 148 43 230 173 221 352 -3 76 -26 145 -47 143
-7 -1 -66 -20 -131 -44z m49 -157 c-35 -59 -111 -134 -171 -169 -85 -49 -92
-34 -13 29 40 32 102 86 138 120 36 34 66 62 68 62 2 0 -8 -19 -22 -42z"/>
<path d="M1571 938 c-14 -44 -16 -121 -6 -168 4 -19 16 -32 37 -41 17 -7 38
-21 48 -31 16 -18 22 -18 63 -6 l46 13 -37 40 c-37 40 -72 88 -72 101 0 3 35
-26 77 -66 42 -39 95 -81 117 -92 23 -11 51 -29 63 -40 21 -20 21 -20 28 1 27
87 -22 190 -119 246 -41 24 -200 85 -221 85 -7 0 -17 -19 -24 -42z"/>
<path d="M1523 714 c-18 -9 -40 -28 -49 -42 -16 -24 -16 -26 2 -39 10 -7 36
-19 57 -25 37 -11 40 -10 67 19 16 17 34 33 40 35 16 5 2 34 -23 46 -41 20
-62 21 -94 6z m70 -51 c-13 -2 -33 -2 -45 0 -13 2 -3 4 22 4 25 0 35 -2 23 -4z"/>
<path d="M1730 680 c-45 -13 -105 -48 -129 -76 l-24 -27 24 -19 c13 -11 38
-31 54 -45 17 -14 40 -30 53 -36 22 -10 22 -11 22 -242 l0 -231 99 1 c55 0
103 4 107 8 13 13 7 542 -6 568 -40 77 -126 120 -200 99z m109 -116 c60 -30
63 -41 5 -19 -21 8 -61 21 -89 29 l-50 14 41 1 c25 1 60 -9 93 -25z"/>
</g>
</svg>
